P3
61 61
255
174 205 188 174 205 188 174 205 188 174 205 188 174 205 188 174 205 188 181 211 195 174 205 188 174 205 188 181 211 195 174 205 188 174 205 188 174 205 188 181 211 195 174 205 188 174 205 188 174 205 188 181 211 195 174 205 188 174 205 188 181 211 195 174 205 188 174 205 188 181 211 195 181 211 195 174 205 188 181 211 195 174 205 188 181 211 195 181 211 195 174 205 188 181 211 195 181 211 195 174 205 188 174 205 188 174 205 188 174 205 188 174 205 188 181 211 195 174 205 188 174 205 188 174 205 188 174 205 188 174 205 188 174 205 188 174 205 188 174 205 188 174 205 188 174 205 188 174 205 188 174 205 188 174 205 188 174 205 188 174 205 188 174 205 188 144 202 189 174 205 188 155 168 165 174 205 188 174 205 188 174 205 188 
174 205 188 174 205 188 174 205 188 174 205 188 174 205 188 174 205 188 174 205 188 174 205 188 174 205 188 181 211 195 174 205 188 174 205 188 174 205 188 174 205 188 174 205 188 181 211 195 181 211 195 174 205 188 181 211 195 174 205 188 174 205 188 174 205 188 174 205 188 174 205 188 181 211 195 181 211 195 174 205 188 174 205 188 181 211 195 174 205 188 181 211 195 174 205 188 174 205 188 174 205 188 174 205 188 181 211 195 174 205 188 181 211 195 174 205 188 174 205 188 174 205 188 174 205 188 174 205 188 174 205 188 174 205 188 174 205 188 174 205 188 174 205 188 174 205 188 174 205 188 174 205 188 174 205 188 174 205 188 174 205 188 174 205 188 174 205 188 174 205 188 174 205 188 174 205 188 174 205 188 174 205 188 
174 205 188 174 205 188 174 205 188 174 205 188 174 205 188 174 205 188 174 205 188 174 205 188 174 205 188 174 205 188 174 205 188 181 211 195 174 205 188 174 205 188 174 205 188 174 205 188 181 211 195 174 205 188 174 205 188 174 205 188 174 205 188 181 211 195 174 205 188 174 205 188 174 205 188 181 211 195 181 211 195 181 211 195 181 211 195 181 211 195 181 211 195 181 211 195 174 205 188 181 211 195 181 211 195 181 211 195 181 211 195 174 205 188 174 205 188 174 205 188 174 205 188 174 205 188 174 205 188 174 205 188 174 205 188 174 205 188 174 205 188 174 205 188 174 205 188 174 205 188 174 205 188 174 205 188 174 205 188 174 205 188 174 205 188 174 205 188 174 205 188 174 205 188 174 205 188 174 205 188 174 205 188 
174 205 188 174 205 188 174 205 188 181 211 195 174 205 188 181 211 195 174 205 188 181 211 195 181 211 195 174 205 188 181 211 195 174 205 188 174 205 188 181 211 195 181 211 195 174 205 188 174 205 188 174 205 188 181 211 195 174 205 188 174 205 188 181 211 195 181 211 195 181 211 195 181 211 195 181 211 195 174 205 188 181 211 195 181 211 195 181 211 195 174 205 188 181 211 195 181 211 195 181 211 195 181 211 195 181 211 195 174 205 188 174 205 188 181 211 195 174 205 188 181 211 195 174 205 188 174 205 188 174 205 188 174 205 188 174 205 188 174 205 188 174 205 188 174 205 188 174 205 188 174 205 188 174 205 188 174 205 188 155 168 165 174 205 188 174 205 188 174 205 188 174 205 188 174 205 188 174 205 188 174 205 188 
174 205 188 174 205 188 174 205 188 174 205 188 181 211 195 174 205 188 174 205 188 181 211 195 181 211 195 181 211 195 174 205 188 174 205 188 174 205 188 181 211 195 181 211 195 181 211 195 181 211 195 174 205 188 174 205 188 181 211 195 174 205 188 181 211 195 181 211 195 181 211 195 181 211 195 113 145 143 48 74 84 174 205 188 181 211 195 181 211 195 181 211 195 181 211 195 181 211 195 181 211 195 181 211 195 155 168 165 48 74 84 113 145 143 181 211 195 181 211 195 174 205 188 174 205 188 174 205 188 181 211 195 174 205 188 174 205 188 174 205 188 174 205 188 174 205 188 174 205 188 174 205 188 174 205 188 174 205 188 174 205 188 174 205 188 174 205 188 174 205 188 174 205 188 174 205 188 174 205 188 174 205 188 
174 205 188 174 205 188 181 211 195 181 211 195 174 205 188 181 211 195 181 211 195 174 205 188 174 205 188 181 211 195 174 205 188 181 211 195 181 211 195 181 211 195 181 211 195 181 211 195 181 211 195 181 211 195 181 211 195 181 211 195 181 211 195 181 211 195 174 205 188 181 211 195 174 205 188 38 98 103 91 61 61 113 145 143 181 211 195 181 211 195 181 211 195 181 211 195 181 211 195 181 211 195 181 211 195 38 98 103 85 90 97 48 74 84 181 211 195 181 211 195 174 205 188 181 211 195 174 205 188 174 205 188 174 205 188 174 205 188 181 211 195 174 205 188 174 205 188 174 205 188 174 205 188 174 205 188 174 205 188 174 205 188 174 205 188 174 205 188 174 205 188 174 205 188 174 205 188 174 205 188 174 205 188 
174 205 188 181 211 195 181 211 195 174 205 188 181 211 195 174 205 188 174 205 188 181 211 195 181 211 195 174 205 188 181 211 195 181 211 195 181 211 195 174 205 188 181 211 195 181 211 195 181 211 195 181 211 195 174 205 188 181 211 195 181 211 195 181 211 195 181 211 195 181 211 195 113 145 143 85 90 97 91 61 61 113 145 143 174 205 188 144 202 189 155 168 165 181 211 195 181 211 195 181 211 195 107 123 131 107 123 131 168 85 78 85 90 97 181 211 195 181 211 195 181 211 195 174 205 188 174 205 188 174 205 188 181 211 195 174 205 188 174 205 188 174 205 188 174 205 188 174 205 188 174 205 188 174 205 188 174 205 188 174 205 188 174 205 188 174 205 188 174 205 188 174 205 188 174 205 188 174 205 188 174 205 188 
174 205 188 174 205 188 174 205 188 174 205 188 174 205 188 181 211 195 174 205 188 174 205 188 181 211 195 174 205 188 181 211 195 174 205 188 181 211 195 181 211 195 181 211 195 181 211 195 181 211 195 181 211 195 181 211 195 181 211 195 181 211 195 181 211 195 181 211 195 155 168 165 85 90 97 223 138 84 47 41 51 113 145 143 174 205 188 83 107 113 37 57 69 144 202 189 142 206 193 107 123 131 85 90 97 227 161 152 93 34 42 83 107 113 155 168 165 174 205 188 181 211 195 181 211 195 181 211 195 181 211 195 174 205 188 181 211 195 181 211 195 174 205 188 174 205 188 174 205 188 174 205 188 174 205 188 174 205 188 174 205 188 174 205 188 174 205 188 174 205 188 174 205 188 174 205 188 174 205 188 174 205 188 
174 205 188 174 205 188 174 205 188 181 211 195 181 211 195 174 205 188 181 211 195 174 205 188 181 211 195 174 205 188 181 211 195 181 211 195 181 211 195 181 211 195 181 211 195 181 211 195 181 211 195 181 211 195 181 211 195 181 211 195 174 205 188 225 224 224 155 168 165 48 74 84 137 127 129 93 34 42 34 31 46 38 98 103 38 98 103 85 90 97 37 57 69 56 154 149 38 98 103 107 123 131 227 161 152 168 85 78 34 31 46 107 123 131 48 74 84 113 145 143 181 211 195 181 211 195 181 211 195 181 211 195 181 211 195 181 211 195 181 211 195 174 205 188 174 205 188 174 205 188 174 205 188 174 205 188 174 205 188 174 205 188 174 205 188 174 205 188 174 205 188 174 205 188 174 205 188 174 205 188 174 205 188 
174 205 188 181 211 195 181 211 195 174 205 188 174 205 188 181 211 195 181 211 195 181 211 195 181 211 195 181 211 195 181 211 195 181 211 195 181 211 195 181 211 195 181 211 195 181 211 195 181 211 195 181 211 195 181 211 195 181 211 195 174 205 188 113 145 143 48 74 84 137 127 129 91 61 61 107 123 131 85 90 97 37 57 69 83 107 113 168 85 78 34 31 46 48 74 84 137 127 129 227 161 152 208 37 39 93 34 42 37 57 69 48 74 84 37 57 69 83 107 113 181 211 195 181 211 195 181 211 195 181 211 195 181 211 195 174 205 188 181 211 195 181 211 195 174 205 188 174 205 188 174 205 188 174 205 188 174 205 188 181 211 195 174 205 188 174 205 188 174 205 188 174 205 188 174 205 188 174 205 188 174 205 188 
174 205 188 174 205 188 174 205 188 181 211 195 181 211 195 181 211 195 181 211 195 174 205 188 181 211 195 181 211 195 181 211 195 181 211 195 181 211 195 181 211 195 181 211 195 181 211 195 181 211 195 225 224 224 181 211 195 142 206 193 56 154 149 48 74 84 107 123 131 91 61 61 155 168 165 241 142 89 168 85 78 168 85 78 168 85 78 91 61 61 83 107 113 227 161 152 235 94 88 208 37 39 93 34 42 34 31 46 37 57 69 137 127 129 85 90 97 56 154 149 142 206 193 181 211 195 181 211 195 181 211 195 181 211 195 174 205 188 181 211 195 174 205 188 181 211 195 174 205 188 174 205 188 174 205 188 174 205 188 174 205 188 174 205 188 174 205 188 174 205 188 174 205 188 174 205 188 174 205 188 174 205 188 
174 205 188 181 211 195 174 205 188 181 211 195 181 211 195 181 211 195 181 211 195 174 205 188 181 211 195 181 211 195 181 211 195 181 211 195 181 211 195 181 211 195 181 211 195 181 211 195 181 211 195 142 206 193 83 194 182 56 154 149 38 98 103 85 90 97 85 90 97 209 194 189 241 142 89 163 29 36 91 61 61 85 90 97 37 57 69 113 145 143 235 94 88 226 80 43 163 29 36 93 34 42 34 31 46 83 107 113 155 168 165 235 94 88 37 57 69 56 154 149 83 194 182 83 194 182 144 202 189 181 211 195 181 211 195 181 211 195 181 211 195 181 211 195 181 211 195 181 211 195 174 205 188 174 205 188 174 205 188 174 205 188 174 205 188 174 205 188 174 205 188 174 205 188 174 205 188 174 205 188 174 205 188 
174 205 188 181 211 195 174 205 188 181 211 195 174 205 188 155 168 165 113 145 143 174 205 188 181 211 195 181 211 195 181 211 195 181 211 195 181 211 195 181 211 195 181 211 195 225 224 224 142 206 193 83 194 182 38 98 103 38 98 103 37 57 69 37 57 69 227 161 152 235 94 88 93 34 42 113 145 143 209 194 189 227 161 152 155 168 165 85 90 97 93 34 42 93 34 42 48 74 84 83 107 113 227 161 152 227 161 152 226 80 43 93 34 42 48 74 84 56 154 149 70 187 177 38 98 103 38 98 103 83 194 182 181 211 195 225 224 224 181 211 195 181 211 195 174 205 188 181 211 195 174 205 188 174 205 188 174 205 188 174 205 188 174 205 188 174 205 188 174 205 188 174 205 188 174 205 188 174 205 188 174 205 188 
174 205 188 181 211 195 181 211 195 181 211 195 174 205 188 83 107 113 37 57 69 48 74 84 113 145 143 181 211 195 181 211 195 181 211 195 181 211 195 181 211 195 181 211 195 83 194 182 70 187 177 56 154 149 37 57 69 137 127 129 227 161 152 137 127 129 235 94 88 208 37 39 137 127 129 235 94 88 93 34 42 93 34 42 163 29 36 235 94 88 91 61 61 163 29 36 235 94 88 235 94 88 226 80 43 163 29 36 93 34 42 34 31 46 47 41 51 34 31 46 37 57 69 48 74 84 38 98 103 83 194 182 83 194 182 181 211 195 181 211 195 181 211 195 181 211 195 181 211 195 181 211 195 181 211 195 181 211 195 174 205 188 174 205 188 181 211 195 174 205 188 174 205 188 174 205 188 174 205 188 174 205 188 
174 205 188 181 211 195 181 211 195 181 211 195 181 211 195 181 211 195 83 107 113 113 145 143 85 90 97 113 145 143 181 211 195 181 211 195 225 224 224 181 211 195 142 206 193 70 187 177 83 194 182 38 98 103 48 74 84 107 123 131 168 85 78 227 161 152 247 25 38 168 85 78 137 127 129 85 90 97 155 168 165 38 98 103 34 31 46 163 29 36 247 46 47 247 25 38 163 29 36 93 34 42 91 61 61 85 90 97 48 74 84 83 107 113 113 145 143 155 168 165 223 138 84 91 61 61 56 154 149 70 187 177 83 194 182 83 194 182 181 211 195 174 205 188 181 211 195 174 205 188 181 211 195 174 205 188 174 205 188 174 205 188 174 205 188 174 205 188 174 205 188 174 205 188 174 205 188 174 205 188 174 205 188 
181 211 195 181 211 195 181 211 195 181 211 195 181 211 195 181 211 195 155 168 165 107 123 131 209 194 189 48 74 84 174 205 188 155 168 165 181 211 195 142 206 193 83 194 182 83 194 182 83 194 182 38 98 103 137 127 129 155 168 165 91 61 61 235 94 88 247 25 38 247 46 47 163 29 36 155 168 165 225 224 224 83 107 113 34 31 46 163 29 36 247 25 38 208 37 39 47 41 51 168 85 78 235 94 88 227 161 152 227 161 152 227 161 152 241 142 89 235 94 88 91 61 61 37 57 69 56 154 149 70 187 177 83 194 182 83 194 182 83 194 182 174 205 188 181 211 195 181 211 195 174 205 188 181 211 195 181 211 195 174 205 188 174 205 188 174 205 188 174 205 188 174 205 188 174 205 188 174 205 188 174 205 188 
181 211 195 181 211 195 181 211 195 181 211 195 174 205 188 113 145 143 113 145 143 83 107 113 227 161 152 85 90 97 37 57 69 83 107 113 181 211 195 83 194 182 56 154 149 56 154 149 70 187 177 56 154 149 48 74 84 48 74 84 137 127 129 235 94 88 247 25 38 247 25 38 163 29 36 137 127 129 83 107 113 83 107 113 85 90 97 163 29 36 247 25 38 247 25 38 93 34 42 163 29 36 163 29 36 208 37 39 208 37 39 208 37 39 163 29 36 93 34 42 47 41 51 48 74 84 48 74 84 48 74 84 38 98 103 56 154 149 83 194 182 144 202 189 181 211 195 181 211 195 181 211 195 174 205 188 174 205 188 174 205 188 181 211 195 174 205 188 174 205 188 174 205 188 174 205 188 174 205 188 174 205 188 
174 205 188 181 211 195 181 211 195 181 211 195 174 205 188 38 98 103 47 41 51 83 107 113 227 161 152 91 61 61 37 57 69 85 90 97 83 194 182 56 154 149 38 98 103 83 107 113 38 98 103 38 98 103 48 74 84 113 145 143 225 224 224 247 46 47 247 25 38 247 25 38 208 37 39 168 85 78 137 127 129 137 127 129 168 85 78 247 25 38 247 25 38 247 25 38 93 34 42 93 34 42 93 34 42 93 34 42 93 34 42 93 34 42 34 31 46 93 34 42 208 37 39 235 94 88 223 138 84 227 161 152 107 123 131 48 74 84 56 154 149 70 187 177 181 211 195 181 211 195 181 211 195 181 211 195 181 211 195 181 211 195 174 205 188 174 205 188 174 205 188 174 205 188 174 205 188 174 205 188 174 205 188 
181 211 195 181 211 195 181 211 195 181 211 195 174 205 188 83 107 113 83 107 113 155 168 165 235 94 88 226 80 43 168 85 78 37 57 69 70 187 177 48 74 84 107 123 131 209 194 189 209 194 189 227 161 152 209 194 189 227 161 152 227 161 152 247 46 47 247 25 38 247 25 38 247 25 38 247 25 38 208 37 39 163 29 36 163 29 36 247 25 38 247 25 38 247 25 38 93 34 42 93 34 42 168 85 78 227 161 152 155 168 165 83 107 113 47 41 51 163 29 36 163 29 36 208 37 39 208 37 39 168 85 78 235 94 88 137 127 129 48 74 84 38 98 103 83 194 182 181 211 195 181 211 195 181 211 195 181 211 195 174 205 188 174 205 188 174 205 188 174 205 188 174 205 188 174 205 188 174 205 188 174 205 188 
181 211 195 181 211 195 174 205 188 174 205 188 174 205 188 85 90 97 155 168 165 241 142 89 163 29 36 226 80 43 247 46 47 37 57 69 56 154 149 38 98 103 107 123 131 227 161 152 247 25 38 235 94 88 163 29 36 47 41 51 163 29 36 247 46 47 247 25 38 247 25 38 247 25 38 247 25 38 163 29 36 48 74 84 91 61 61 208 37 39 247 25 38 247 25 38 93 34 42 93 34 42 163 29 36 226 80 43 235 94 88 209 194 189 155 168 165 91 61 61 163 29 36 247 25 38 208 37 39 93 34 42 47 41 51 47 41 51 47 41 51 37 57 69 83 107 113 174 205 188 181 211 195 181 211 195 181 211 195 181 211 195 181 211 195 174 205 188 174 205 188 174 205 188 174 205 188 174 205 188 174 205 188 
181 211 195 181 211 195 181 211 195 181 211 195 174 205 188 85 90 97 223 138 84 226 80 43 47 41 51 163 29 36 208 37 39 47 41 51 70 187 177 38 98 103 155 168 165 235 94 88 247 25 38 247 25 38 208 37 39 247 25 38 247 25 38 247 25 38 247 46 47 235 94 88 208 37 39 93 34 42 85 90 97 168 85 78 247 46 47 247 25 38 247 25 38 163 29 36 34 31 46 91 61 61 93 34 42 163 29 36 208 37 39 247 46 47 235 94 88 155 168 165 47 41 51 208 37 39 247 25 38 247 25 38 168 85 78 48 74 84 48 74 84 38 98 103 56 154 149 83 194 182 181 211 195 181 211 195 174 205 188 181 211 195 174 205 188 174 205 188 174 205 188 174 205 188 174 205 188 174 205 188 174 205 188 
174 205 188 181 211 195 181 211 195 181 211 195 181 211 195 113 145 143 91 61 61 208 37 39 34 31 46 163 29 36 93 34 42 38 98 103 70 187 177 38 98 103 137 127 129 247 46 47 247 25 38 247 25 38 247 25 38 247 25 38 247 25 38 247 25 38 91 61 61 107 123 131 47 41 51 168 85 78 235 94 88 247 25 38 247 25 38 208 37 39 163 29 36 34 31 46 163 29 36 208 37 39 155 168 165 91 61 61 93 34 42 93 34 42 163 29 36 235 94 88 91 61 61 93 34 42 247 25 38 247 25 38 247 46 47 227 161 152 83 107 113 38 98 103 70 187 177 70 187 177 174 205 188 181 211 195 181 211 195 181 211 195 174 205 188 174 205 188 174 205 188 174 205 188 174 205 188 174 205 188 174 205 188 
181 211 195 181 211 195 181 211 195 181 211 195 181 211 195 181 211 195 107 123 131 47 41 51 34 31 46 34 31 46 48 74 84 70 187 177 70 187 177 56 154 149 48 74 84 91 61 61 93 34 42 163 29 36 163 29 36 208 37 39 163 29 36 93 34 42 85 90 97 85 90 97 163 29 36 208 37 39 163 29 36 93 34 42 93 34 42 47 41 51 34 31 46 34 31 46 93 34 42 208 37 39 235 94 88 209 194 189 48 74 84 34 31 46 34 31 46 34 31 46 93 34 42 34 31 46 247 25 38 247 25 38 247 25 38 235 94 88 227 161 152 83 107 113 38 98 103 70 187 177 174 205 188 174 205 188 181 211 195 174 205 188 174 205 188 174 205 188 174 205 188 174 205 188 174 205 188 174 205 188 174 205 188 
181 211 195 181 211 195 181 211 195 181 211 195 181 211 195 181 211 195 181 211 195 113 145 143 47 41 51 37 57 69 70 187 177 70 187 177 70 187 177 70 187 177 56 154 149 38 98 103 137 127 129 137 127 129 85 90 97 85 90 97 85 90 97 168 85 78 235 94 88 163 29 36 93 34 42 47 41 51 47 41 51 91 61 61 93 34 42 163 29 36 47 41 51 34 31 46 47 41 51 93 34 42 208 37 39 241 142 89 155 168 165 34 31 46 93 34 42 93 34 42 93 34 42 93 34 42 208 37 39 247 25 38 247 25 38 247 46 47 235 94 88 227 161 152 85 90 97 83 107 113 83 194 182 181 211 195 181 211 195 181 211 195 174 205 188 174 205 188 174 205 188 174 205 188 174 205 188 174 205 188 174 205 188 
181 211 195 181 211 195 181 211 195 181 211 195 181 211 195 181 211 195 225 224 224 113 145 143 93 34 42 85 90 97 56 154 149 70 187 177 70 187 177 70 187 177 70 187 177 38 98 103 168 85 78 208 37 39 247 46 47 226 80 43 226 80 43 163 29 36 93 34 42 34 31 46 37 57 69 47 41 51 168 85 78 226 80 43 226 80 43 226 80 43 47 41 51 163 29 36 163 29 36 34 31 46 93 34 42 208 37 39 227 161 152 37 57 69 37 57 69 93 34 42 163 29 36 163 29 36 247 46 47 247 25 38 247 25 38 247 25 38 226 80 43 226 80 43 174 205 188 48 74 84 70 187 177 174 205 188 174 205 188 181 211 195 174 205 188 174 205 188 174 205 188 174 205 188 174 205 188 174 205 188 174 205 188 
181 211 195 181 211 195 174 205 188 181 211 195 181 211 195 181 211 195 181 211 195 113 145 143 93 34 42 85 90 97 56 154 149 70 187 177 70 187 177 70 187 177 70 187 177 70 187 177 38 98 103 47 41 51 208 37 39 163 29 36 163 29 36 34 31 46 38 98 103 38 98 103 155 168 165 137 127 129 91 61 61 91 61 61 93 34 42 91 61 61 34 31 46 163 29 36 163 29 36 163 29 36 93 34 42 93 34 42 235 94 88 48 74 84 38 98 103 34 31 46 163 29 36 247 46 47 235 94 88 247 25 38 247 25 38 247 25 38 93 34 42 163 29 36 241 142 89 137 127 129 38 98 103 181 211 195 181 211 195 174 205 188 174 205 188 174 205 188 174 205 188 174 205 188 174 205 188 174 205 188 174 205 188 
174 205 188 181 211 195 181 211 195 181 211 195 181 211 195 181 211 195 181 211 195 113 145 143 93 34 42 137 127 129 38 98 103 70 187 177 83 194 182 70 187 177 70 187 177 83 194 182 56 154 149 38 98 103 91 61 61 93 34 42 37 57 69 38 98 103 38 98 103 83 107 113 225 224 224 241 142 89 241 142 89 226 80 43 168 85 78 34 31 46 93 34 42 208 37 39 247 46 47 163 29 36 247 46 47 48 74 84 93 34 42 37 57 69 56 154 149 37 57 69 163 29 36 235 94 88 235 94 88 247 25 38 247 46 47 247 25 38 163 29 36 34 31 46 226 80 43 223 138 84 37 57 69 155 168 165 181 211 195 174 205 188 181 211 195 174 205 188 174 205 188 174 205 188 174 205 188 174 205 188 174 205 188 
181 211 195 181 211 195 181 211 195 181 211 195 181 211 195 181 211 195 181 211 195 155 168 165 47 41 51 235 94 88 38 98 103 56 154 149 70 187 177 70 187 177 70 187 177 70 187 177 70 187 177 70 187 177 38 98 103 34 31 46 38 98 103 56 154 149 48 74 84 181 211 195 227 161 152 235 94 88 241 142 89 241 142 89 226 80 43 93 34 42 163 29 36 208 37 39 208 37 39 93 34 42 235 94 88 48 74 84 37 57 69 37 57 69 70 187 177 37 57 69 163 29 36 209 194 189 235 94 88 247 46 47 227 161 152 235 94 88 163 29 36 93 34 42 34 31 46 226 80 43 48 74 84 113 145 143 181 211 195 181 211 195 174 205 188 174 205 188 174 205 188 174 205 188 174 205 188 174 205 188 174 205 188 
181 211 195 181 211 195 181 211 195 181 211 195 181 211 195 181 211 195 181 211 195 155 168 165 34 31 46 247 46 47 107 123 131 38 98 103 70 187 177 70 187 177 70 187 177 70 187 177 70 187 177 70 187 177 70 187 177 56 154 149 70 187 177 38 98 103 48 74 84 83 107 113 91 61 61 223 138 84 226 80 43 223 138 84 47 41 51 93 34 42 208 37 39 247 25 38 163 29 36 93 34 42 235 94 88 38 98 103 56 154 149 38 98 103 70 187 177 48 74 84 155 168 165 225 224 224 247 46 47 247 25 38 227 161 152 247 46 47 247 25 38 163 29 36 34 31 46 47 41 51 93 34 42 107 123 131 181 211 195 174 205 188 174 205 188 174 205 188 174 205 188 174 205 188 174 205 188 174 205 188 174 205 188 
181 211 195 181 211 195 181 211 195 181 211 195 181 211 195 181 211 195 181 211 195 144 202 189 34 31 46 163 29 36 227 161 152 48 74 84 70 187 177 70 187 177 70 187 177 70 187 177 70 187 177 70 187 177 70 187 177 83 194 182 56 154 149 48 74 84 209 194 189 223 138 84 168 85 78 91 61 61 91 61 61 91 61 61 47 41 51 163 29 36 247 25 38 247 25 38 93 34 42 93 34 42 235 94 88 38 98 103 70 187 177 70 187 177 70 187 177 37 57 69 209 194 189 225 224 224 247 46 47 247 25 38 247 25 38 247 25 38 208 37 39 163 29 36 47 41 51 34 31 46 34 31 46 83 107 113 181 211 195 181 211 195 181 211 195 174 205 188 174 205 188 174 205 188 174 205 188 174 205 188 174 205 188 
181 211 195 181 211 195 181 211 195 181 211 195 181 211 195 181 211 195 181 211 195 174 205 188 48 74 84 163 29 36 247 46 47 107 123 131 38 98 103 70 187 177 70 187 177 70 187 177 70 187 177 70 187 177 70 187 177 70 187 177 38 98 103 155 168 165 227 161 152 241 142 89 223 138 84 226 80 43 168 85 78 34 31 46 93 34 42 235 94 88 235 94 88 247 46 47 85 90 97 34 31 46 91 61 61 38 98 103 70 187 177 70 187 177 56 154 149 85 90 97 225 224 224 227 161 152 247 25 38 247 25 38 247 25 38 247 25 38 163 29 36 163 29 36 93 34 42 38 98 103 48 74 84 107 123 131 181 211 195 174 205 188 174 205 188 174 205 188 174 205 188 174 205 188 155 168 165 174 205 188 174 205 188 
181 211 195 181 211 195 181 211 195 181 211 195 181 211 195 181 211 195 181 211 195 181 211 195 85 90 97 93 34 42 208 37 39 227 161 152 83 107 113 38 98 103 56 154 149 56 154 149 38 98 103 38 98 103 56 154 149 70 187 177 38 98 103 225 224 224 241 142 89 241 142 89 241 142 89 241 142 89 168 85 78 93 34 42 163 29 36 226 80 43 247 46 47 235 94 88 85 90 97 37 57 69 34 31 46 56 154 149 70 187 177 70 187 177 38 98 103 137 127 129 225 224 224 235 94 88 247 25 38 247 46 47 235 94 88 247 25 38 208 37 39 163 29 36 47 41 51 38 98 103 113 145 143 155 168 165 181 211 195 181 211 195 174 205 188 174 205 188 174 205 188 174 205 188 174 205 188 174 205 188 174 205 188 
181 211 195 181 211 195 181 211 195 181 211 195 181 211 195 181 211 195 181 211 195 181 211 195 155 168 165 47 41 51 163 29 36 247 25 38 235 94 88 85 90 97 48 74 84 48 74 84 91 61 61 168 85 78 85 90 97 48 74 84 37 57 69 83 107 113 168 85 78 226 80 43 223 138 84 241 142 89 91 61 61 93 34 42 208 37 39 247 25 38 163 29 36 235 94 88 85 90 97 38 98 103 38 98 103 56 154 149 70 187 177 56 154 149 48 74 84 225 224 224 227 161 152 247 25 38 247 25 38 235 94 88 227 161 152 247 25 38 163 29 36 163 29 36 47 41 51 56 154 149 144 202 189 181 211 195 174 205 188 174 205 188 174 205 188 174 205 188 174 205 188 174 205 188 174 205 188 174 205 188 144 202 189 
181 211 195 181 211 195 181 211 195 181 211 195 181 211 195 181 211 195 181 211 195 225 224 224 174 205 188 37 57 69 93 34 42 208 37 39 247 46 47 137 127 129 113 145 143 83 107 113 137 127 129 163 29 36 235 94 88 91 61 61 107 123 131 155 168 165 91 61 61 91 61 61 91 61 61 91 61 61 47 41 51 163 29 36 208 37 39 247 25 38 93 34 42 168 85 78 85 90 97 56 154 149 70 187 177 70 187 177 56 154 149 48 74 84 174 205 188 209 194 189 247 46 47 235 94 88 227 161 152 247 25 38 247 25 38 247 25 38 163 29 36 93 34 42 47 41 51 113 145 143 174 205 188 174 205 188 181 211 195 174 205 188 174 205 188 174 205 188 174 205 188 174 205 188 174 205 188 174 205 188 174 205 188 
181 211 195 181 211 195 181 211 195 181 211 195 181 211 195 181 211 195 181 211 195 181 211 195 181 211 195 107 123 131 34 31 46 163 29 36 247 25 38 163 29 36 47 41 51 107 123 131 137 127 129 85 90 97 168 85 78 47 41 51 209 194 189 227 161 152 241 142 89 235 94 88 226 80 43 91 61 61 93 34 42 163 29 36 247 25 38 247 25 38 34 31 46 208 37 39 48 74 84 56 154 149 70 187 177 56 154 149 48 74 84 155 168 165 225 224 224 235 94 88 247 25 38 235 94 88 235 94 88 247 25 38 247 25 38 163 29 36 163 29 36 93 34 42 37 57 69 83 194 182 181 211 195 181 211 195 174 205 188 174 205 188 174 205 188 174 205 188 174 205 188 174 205 188 174 205 188 174 205 188 174 205 188 
174 205 188 181 211 195 181 211 195 181 211 195 181 211 195 181 211 195 181 211 195 181 211 195 181 211 195 144 202 189 34 31 46 47 41 51 163 29 36 247 25 38 208 37 39 91 61 61 37 57 69 107 123 131 48 74 84 37 57 69 209 194 189 235 94 88 241 142 89 241 142 89 241 142 89 93 34 42 93 34 42 163 29 36 247 25 38 247 25 38 34 31 46 47 41 51 93 34 42 38 98 103 38 98 103 38 98 103 209 194 189 225 224 224 235 94 88 235 94 88 247 25 38 247 25 38 247 25 38 247 25 38 163 29 36 163 29 36 208 37 39 93 34 42 56 154 149 181 211 195 181 211 195 181 211 195 174 205 188 174 205 188 174 205 188 174 205 188 174 205 188 174 205 188 174 205 188 174 205 188 174 205 188 
181 211 195 181 211 195 181 211 195 181 211 195 181 211 195 181 211 195 181 211 195 181 211 195 181 211 195 181 211 195 85 90 97 34 31 46 93 34 42 163 29 36 247 25 38 247 25 38 163 29 36 85 90 97 137 127 129 85 90 97 85 90 97 168 85 78 168 85 78 235 94 88 241 142 89 91 61 61 93 34 42 163 29 36 247 25 38 247 25 38 93 34 42 34 31 46 34 31 46 37 57 69 137 127 129 225 224 224 227 161 152 247 46 47 235 94 88 235 94 88 247 25 38 247 25 38 247 25 38 208 37 39 93 34 42 163 29 36 163 29 36 47 41 51 144 202 189 181 211 195 174 205 188 174 205 188 174 205 188 174 205 188 174 205 188 174 205 188 174 205 188 174 205 188 174 205 188 174 205 188 174 205 188 
174 205 188 181 211 195 181 211 195 181 211 195 181 211 195 181 211 195 181 211 195 181 211 195 181 211 195 181 211 195 155 168 165 85 90 97 93 34 42 163 29 36 208 37 39 227 161 152 235 94 88 247 25 38 235 94 88 235 94 88 155 168 165 107 123 131 85 90 97 91 61 61 91 61 61 47 41 51 34 31 46 93 34 42 47 41 51 93 34 42 85 90 97 107 123 131 155 168 165 209 194 189 227 161 152 235 94 88 247 25 38 247 25 38 163 29 36 208 37 39 247 25 38 247 25 38 208 37 39 163 29 36 93 34 42 208 37 39 93 34 42 83 107 113 181 211 195 181 211 195 181 211 195 181 211 195 174 205 188 174 205 188 174 205 188 174 205 188 174 205 188 174 205 188 174 205 188 174 205 188 174 205 188 
181 211 195 181 211 195 181 211 195 181 211 195 174 205 188 181 211 195 181 211 195 181 211 195 181 211 195 181 211 195 181 211 195 144 202 189 37 57 69 93 34 42 163 29 36 163 29 36 247 46 47 247 25 38 235 94 88 247 46 47 247 25 38 235 94 88 227 161 152 227 161 152 223 138 84 155 168 165 155 168 165 209 194 189 155 168 165 209 194 189 227 161 152 227 161 152 227 161 152 247 46 47 247 25 38 247 25 38 163 29 36 47 41 51 168 85 78 247 46 47 247 25 38 163 29 36 163 29 36 93 34 42 93 34 42 163 29 36 38 98 103 142 206 193 181 211 195 181 211 195 181 211 195 181 211 195 174 205 188 174 205 188 174 205 188 174 205 188 144 202 189 174 205 188 174 205 188 155 168 165 174 205 188 
174 205 188 181 211 195 181 211 195 181 211 195 181 211 195 181 211 195 181 211 195 181 211 195 181 211 195 225 224 224 181 211 195 181 211 195 113 145 143 34 31 46 93 34 42 163 29 36 163 29 36 208 37 39 235 94 88 235 94 88 247 25 38 247 25 38 247 46 47 247 25 38 226 80 43 247 46 47 247 46 47 235 94 88 247 46 47 247 46 47 247 46 47 235 94 88 235 94 88 247 25 38 247 25 38 93 34 42 91 61 61 235 94 88 235 94 88 163 29 36 93 34 42 163 29 36 163 29 36 93 34 42 34 31 46 48 74 84 83 194 182 181 211 195 181 211 195 181 211 195 181 211 195 181 211 195 174 205 188 174 205 188 174 205 188 174 205 188 174 205 188 174 205 188 174 205 188 174 205 188 174 205 188 
181 211 195 181 211 195 181 211 195 181 211 195 181 211 195 181 211 195 181 211 195 181 211 195 181 211 195 181 211 195 181 211 195 181 211 195 225 224 224 155 168 165 37 57 69 34 31 46 34 31 46 47 41 51 93 34 42 34 31 46 93 34 42 163 29 36 235 94 88 227 161 152 247 25 38 247 25 38 247 25 38 227 161 152 235 94 88 247 25 38 247 25 38 227 161 152 235 94 88 247 25 38 208 37 39 34 31 46 93 34 42 93 34 42 34 31 46 34 31 46 93 34 42 163 29 36 163 29 36 34 31 46 34 31 46 113 145 143 181 211 195 181 211 195 174 205 188 174 205 188 174 205 188 174 205 188 174 205 188 174 205 188 174 205 188 174 205 188 174 205 188 174 205 188 174 205 188 174 205 188 174 205 188 
181 211 195 181 211 195 181 211 195 181 211 195 181 211 195 181 211 195 181 211 195 144 202 189 142 206 193 181 211 195 174 205 188 181 211 195 181 211 195 181 211 195 113 145 143 37 57 69 34 31 46 34 31 46 163 29 36 163 29 36 163 29 36 93 34 42 163 29 36 208 37 39 208 37 39 208 37 39 247 25 38 235 94 88 235 94 88 247 25 38 247 25 38 208 37 39 208 37 39 208 37 39 163 29 36 93 34 42 93 34 42 93 34 42 34 31 46 93 34 42 93 34 42 163 29 36 47 41 51 34 31 46 83 107 113 144 202 189 181 211 195 181 211 195 174 205 188 174 205 188 174 205 188 174 205 188 174 205 188 155 168 165 174 205 188 174 205 188 174 205 188 174 205 188 144 202 189 174 205 188 174 205 188 
181 211 195 181 211 195 181 211 195 181 211 195 181 211 195 174 205 188 48 74 84 48 74 84 48 74 84 37 57 69 83 107 113 181 211 195 155 168 165 83 107 113 38 98 103 48 74 84 34 31 46 34 31 46 93 34 42 93 34 42 47 41 51 47 41 51 93 34 42 34 31 46 47 41 51 47 41 51 34 31 46 47 41 51 34 31 46 34 31 46 93 34 42 47 41 51 37 57 69 34 31 46 34 31 46 34 31 46 47 41 51 34 31 46 34 31 46 34 31 46 34 31 46 47 41 51 34 31 46 37 57 69 48 74 84 48 74 84 83 107 113 38 98 103 48 74 84 48 74 84 48 74 84 48 74 84 37 57 69 48 74 84 155 168 165 174 205 188 174 205 188 174 205 188 174 205 188 174 205 188 174 205 188 
181 211 195 181 211 195 181 211 195 181 211 195 181 211 195 181 211 195 107 123 131 83 107 113 181 211 195 85 90 97 113 145 143 174 205 188 48 74 84 113 145 143 225 224 224 209 194 189 83 107 113 34 31 46 48 74 84 155 168 165 225 224 224 209 194 189 37 57 69 48 74 84 209 194 189 107 123 131 37 57 69 155 168 165 155 168 165 34 31 46 83 107 113 225 224 224 225 224 224 155 168 165 37 57 69 83 107 113 225 224 224 225 224 224 225 224 224 113 145 143 137 127 129 155 168 165 48 74 84 181 211 195 225 224 224 181 211 195 155 168 165 37 57 69 48 74 84 181 211 195 225 224 224 209 194 189 155 168 165 48 74 84 174 205 188 174 205 188 174 205 188 174 205 188 155 168 165 174 205 188 174 205 188 
174 205 188 181 211 195 174 205 188 181 211 195 181 211 195 181 211 195 113 145 143 83 107 113 225 224 224 48 74 84 155 168 165 113 145 143 83 107 113 225 224 224 181 211 195 225 224 224 225 224 224 37 57 69 155 168 165 225 224 224 209 194 189 225 224 224 155 168 165 48 74 84 225 224 224 181 211 195 37 57 69 181 211 195 174 205 188 48 74 84 225 224 224 225 224 224 209 194 189 225 224 224 107 123 131 107 123 131 225 224 224 209 194 189 174 205 188 107 123 131 113 145 143 225 224 224 48 74 84 181 211 195 225 224 224 144 202 189 225 224 224 155 168 165 38 98 103 225 224 224 225 224 224 174 205 188 155 168 165 48 74 84 174 205 188 174 205 188 174 205 188 174 205 188 174 205 188 174 205 188 174 205 188 
181 211 195 181 211 195 181 211 195 181 211 195 181 211 195 181 211 195 113 145 143 107 123 131 225 224 224 38 98 103 155 168 165 83 107 113 155 168 165 225 224 224 48 74 84 107 123 131 225 224 224 85 90 97 225 224 224 174 205 188 37 57 69 174 205 188 225 224 224 48 74 84 225 224 224 225 224 224 48 74 84 225 224 224 209 194 189 83 107 113 225 224 224 83 107 113 37 57 69 83 107 113 34 31 46 107 123 131 225 224 224 48 74 84 48 74 84 37 57 69 155 168 165 225 224 224 48 74 84 225 224 224 155 168 165 34 31 46 174 205 188 225 224 224 85 90 97 225 224 224 83 107 113 37 57 69 37 57 69 48 74 84 155 168 165 174 205 188 174 205 188 155 168 165 174 205 188 174 205 188 174 205 188 
181 211 195 174 205 188 181 211 195 174 205 188 181 211 195 225 224 224 113 145 143 83 107 113 225 224 224 83 107 113 155 168 165 38 98 103 155 168 165 225 224 224 37 57 69 107 123 131 225 224 224 83 107 113 225 224 224 174 205 188 34 31 46 155 168 165 225 224 224 83 107 113 225 224 224 225 224 224 113 145 143 209 194 189 174 205 188 85 90 97 225 224 224 38 98 103 34 31 46 34 31 46 34 31 46 107 123 131 225 224 224 85 90 97 38 98 103 37 57 69 155 168 165 225 224 224 48 74 84 225 224 224 155 168 165 34 31 46 155 168 165 225 224 224 85 90 97 225 224 224 113 145 143 83 107 113 113 145 143 155 168 165 174 205 188 174 205 188 174 205 188 174 205 188 174 205 188 144 202 189 174 205 188 
181 211 195 181 211 195 181 211 195 181 211 195 181 211 195 181 211 195 113 145 143 107 123 131 225 224 224 85 90 97 155 168 165 83 107 113 155 168 165 225 224 224 37 57 69 107 123 131 225 224 224 38 98 103 225 224 224 155 168 165 34 31 46 144 202 189 225 224 224 83 107 113 225 224 224 225 224 224 181 211 195 225 224 224 174 205 188 107 123 131 225 224 224 83 107 113 48 74 84 83 107 113 38 98 103 107 123 131 225 224 224 107 123 131 83 107 113 37 57 69 113 145 143 225 224 224 37 57 69 225 224 224 155 168 165 37 57 69 225 224 224 209 194 189 85 90 97 225 224 224 113 145 143 37 57 69 37 57 69 113 145 143 113 145 143 113 145 143 155 168 165 174 205 188 174 205 188 174 205 188 174 205 188 
174 205 188 181 211 195 181 211 195 181 211 195 181 211 195 181 211 195 155 168 165 83 107 113 225 224 224 38 98 103 144 202 189 83 107 113 155 168 165 225 224 224 37 57 69 107 123 131 225 224 224 85 90 97 181 211 195 155 168 165 34 31 46 155 168 165 227 161 152 48 74 84 209 194 189 209 194 189 209 194 189 209 194 189 223 138 84 83 107 113 209 194 189 91 61 61 113 145 143 225 224 224 137 127 129 85 90 97 225 224 224 225 224 224 225 224 224 85 90 97 155 168 165 209 194 189 48 74 84 209 194 189 225 224 224 225 224 224 225 224 224 113 145 143 48 74 84 225 224 224 225 224 224 181 211 195 38 98 103 113 145 143 155 168 165 83 107 113 155 168 165 174 205 188 174 205 188 174 205 188 174 205 188 
174 205 188 181 211 195 174 205 188 181 211 195 181 211 195 181 211 195 113 145 143 85 90 97 241 142 89 47 41 51 155 168 165 83 107 113 168 85 78 223 138 84 47 41 51 91 61 61 223 138 84 91 61 61 226 80 43 163 29 36 34 31 46 168 85 78 226 80 43 47 41 51 226 80 43 163 29 36 226 80 43 226 80 43 226 80 43 91 61 61 226 80 43 91 61 61 91 61 61 247 46 47 91 61 61 91 61 61 226 80 43 91 61 61 48 74 84 47 41 51 91 61 61 226 80 43 47 41 51 226 80 43 223 138 84 241 142 89 226 80 43 34 31 46 91 61 61 241 142 89 223 138 84 168 85 78 48 74 84 155 168 165 181 211 195 174 205 188 174 205 188 174 205 188 174 205 188 174 205 188 174 205 188 
174 205 188 174 205 188 181 211 195 181 211 195 181 211 195 181 211 195 155 168 165 93 34 42 226 80 43 93 34 42 155 168 165 85 90 97 163 29 36 226 80 43 34 31 46 93 34 42 226 80 43 93 34 42 226 80 43 226 80 43 34 31 46 163 29 36 226 80 43 47 41 51 226 80 43 163 29 36 208 37 39 226 80 43 163 29 36 91 61 61 226 80 43 93 34 42 34 31 46 247 46 47 93 34 42 93 34 42 226 80 43 47 41 51 83 107 113 37 57 69 163 29 36 226 80 43 34 31 46 226 80 43 163 29 36 163 29 36 226 80 43 34 31 46 47 41 51 226 80 43 93 34 42 34 31 46 37 57 69 155 168 165 181 211 195 174 205 188 174 205 188 174 205 188 174 205 188 174 205 188 174 205 188 
181 211 195 181 211 195 181 211 195 181 211 195 181 211 195 174 205 188 113 145 143 93 34 42 226 80 43 91 61 61 113 145 143 48 74 84 91 61 61 226 80 43 34 31 46 93 34 42 226 80 43 93 34 42 226 80 43 163 29 36 34 31 46 226 80 43 226 80 43 47 41 51 226 80 43 93 34 42 93 34 42 226 80 43 168 85 78 93 34 42 226 80 43 93 34 42 47 41 51 247 46 47 91 61 61 163 29 36 226 80 43 47 41 51 155 168 165 83 107 113 163 29 36 226 80 43 34 31 46 226 80 43 163 29 36 91 61 61 226 80 43 93 34 42 47 41 51 226 80 43 93 34 42 137 127 129 155 168 165 144 202 189 174 205 188 174 205 188 174 205 188 174 205 188 155 168 165 174 205 188 144 202 189 
174 205 188 181 211 195 181 211 195 181 211 195 181 211 195 181 211 195 155 168 165 91 61 61 226 80 43 93 34 42 34 31 46 47 41 51 163 29 36 247 46 47 163 29 36 226 80 43 226 80 43 34 31 46 226 80 43 226 80 43 163 29 36 226 80 43 163 29 36 47 41 51 226 80 43 93 34 42 34 31 46 226 80 43 163 29 36 34 31 46 226 80 43 226 80 43 226 80 43 226 80 43 93 34 42 93 34 42 226 80 43 91 61 61 155 168 165 83 107 113 163 29 36 226 80 43 47 41 51 226 80 43 93 34 42 34 31 46 226 80 43 163 29 36 93 34 42 226 80 43 93 34 42 37 57 69 48 74 84 85 90 97 174 205 188 174 205 188 174 205 188 174 205 188 174 205 188 144 202 189 174 205 188 
181 211 195 181 211 195 181 211 195 181 211 195 181 211 195 181 211 195 113 145 143 93 34 42 226 80 43 208 37 39 208 37 39 163 29 36 34 31 46 163 29 36 226 80 43 226 80 43 47 41 51 37 57 69 47 41 51 163 29 36 226 80 43 163 29 36 34 31 46 34 31 46 226 80 43 93 34 42 34 31 46 93 34 42 93 34 42 34 31 46 93 34 42 163 29 36 163 29 36 226 80 43 163 29 36 93 34 42 208 37 39 47 41 51 155 168 165 38 98 103 93 34 42 163 29 36 47 41 51 226 80 43 163 29 36 34 31 46 163 29 36 226 80 43 93 34 42 226 80 43 208 37 39 163 29 36 93 34 42 37 57 69 144 202 189 174 205 188 174 205 188 174 205 188 174 205 188 174 205 188 174 205 188 
174 205 188 181 211 195 181 211 195 181 211 195 174 205 188 181 211 195 113 145 143 93 34 42 226 80 43 208 37 39 226 80 43 93 34 42 34 31 46 47 41 51 47 41 51 47 41 51 85 90 97 174 205 188 113 145 143 48 74 84 37 57 69 48 74 84 38 98 103 48 74 84 37 57 69 48 74 84 48 74 84 37 57 69 48 74 84 48 74 84 83 107 113 48 74 84 47 41 51 47 41 51 91 61 61 37 57 69 37 57 69 37 57 69 113 145 143 85 90 97 47 41 51 37 57 69 37 57 69 47 41 51 47 41 51 34 31 46 47 41 51 93 34 42 93 34 42 163 29 36 208 37 39 226 80 43 208 37 39 48 74 84 174 205 188 174 205 188 174 205 188 174 205 188 174 205 188 174 205 188 174 205 188 
174 205 188 181 211 195 174 205 188 181 211 195 181 211 195 174 205 188 83 107 113 47 41 51 47 41 51 47 41 51 37 57 69 38 98 103 83 107 113 155 168 165 155 168 165 144 202 189 181 211 195 174 205 188 181 211 195 174 205 188 174 205 188 174 205 188 174 205 188 174 205 188 174 205 188 174 205 188 174 205 188 174 205 188 174 205 188 174 205 188 174 205 188 174 205 188 174 205 188 113 145 143 113 145 143 144 202 189 174 205 188 174 205 188 174 205 188 174 205 188 174 205 188 174 205 188 144 202 189 144 202 189 144 202 189 113 145 143 113 145 143 113 145 143 83 107 113 37 57 69 47 41 51 47 41 51 34 31 46 37 57 69 155 168 165 174 205 188 174 205 188 155 168 165 174 205 188 144 202 189 174 205 188 
174 205 188 174 205 188 181 211 195 181 211 195 181 211 195 174 205 188 83 107 113 83 107 113 155 168 165 155 168 165 174 205 188 181 211 195 181 211 195 181 211 195 181 211 195 181 211 195 181 211 195 181 211 195 181 211 195 181 211 195 181 211 195 181 211 195 181 211 195 181 211 195 181 211 195 181 211 195 181 211 195 181 211 195 181 211 195 181 211 195 174 205 188 181 211 195 174 205 188 174 205 188 174 205 188 181 211 195 174 205 188 181 211 195 174 205 188 181 211 195 181 211 195 181 211 195 181 211 195 181 211 195 181 211 195 174 205 188 181 211 195 174 205 188 174 205 188 174 205 188 144 202 189 113 145 143 83 107 113 85 90 97 155 168 165 174 205 188 174 205 188 174 205 188 144 202 189 174 205 188 174 205 188 
181 211 195 181 211 195 181 211 195 181 211 195 181 211 195 174 205 188 174 205 188 181 211 195 174 205 188 181 211 195 181 211 195 181 211 195 181 211 195 181 211 195 181 211 195 181 211 195 181 211 195 181 211 195 181 211 195 181 211 195 181 211 195 181 211 195 181 211 195 181 211 195 181 211 195 181 211 195 181 211 195 174 205 188 181 211 195 181 211 195 181 211 195 174 205 188 174 205 188 174 205 188 181 211 195 174 205 188 181 211 195 174 205 188 181 211 195 174 205 188 174 205 188 174 205 188 181 211 195 174 205 188 174 205 188 174 205 188 174 205 188 174 205 188 174 205 188 144 202 189 174 205 188 181 211 195 174 205 188 174 205 188 144 202 189 174 205 188 174 205 188 174 205 188 174 205 188 174 205 188 174 205 188 
181 211 195 174 205 188 174 205 188 181 211 195 174 205 188 181 211 195 181 211 195 181 211 195 181 211 195 181 211 195 181 211 195 181 211 195 181 211 195 174 205 188 181 211 195 174 205 188 181 211 195 181 211 195 181 211 195 181 211 195 181 211 195 174 205 188 181 211 195 174 205 188 181 211 195 181 211 195 181 211 195 174 205 188 174 205 188 181 211 195 181 211 195 174 205 188 181 211 195 174 205 188 174 205 188 174 205 188 174 205 188 181 211 195 181 211 195 174 205 188 181 211 195 174 205 188 174 205 188 174 205 188 174 205 188 174 205 188 174 205 188 174 205 188 174 205 188 174 205 188 174 205 188 174 205 188 174 205 188 174 205 188 174 205 188 174 205 188 174 205 188 174 205 188 174 205 188 174 205 188 174 205 188 
181 211 195 181 211 195 181 211 195 181 211 195 181 211 195 181 211 195 181 211 195 181 211 195 181 211 195 181 211 195 181 211 195 181 211 195 181 211 195 181 211 195 181 211 195 181 211 195 181 211 195 181 211 195 181 211 195 174 205 188 181 211 195 181 211 195 174 205 188 181 211 195 181 211 195 174 205 188 181 211 195 181 211 195 181 211 195 181 211 195 174 205 188 181 211 195 174 205 188 181 211 195 174 205 188 181 211 195 174 205 188 174 205 188 174 205 188 174 205 188 174 205 188 174 205 188 174 205 188 174 205 188 174 205 188 174 205 188 174 205 188 174 205 188 174 205 188 174 205 188 174 205 188 174 205 188 174 205 188 155 168 165 174 205 188 174 205 188 174 205 188 144 202 189 174 205 188 174 205 188 174 205 188 
181 211 195 181 211 195 181 211 195 181 211 195 181 211 195 174 205 188 181 211 195 181 211 195 174 205 188 181 211 195 181 211 195 181 211 195 181 211 195 174 205 188 181 211 195 181 211 195 181 211 195 181 211 195 181 211 195 181 211 195 174 205 188 181 211 195 174 205 188 181 211 195 174 205 188 181 211 195 181 211 195 174 205 188 181 211 195 174 205 188 181 211 195 174 205 188 181 211 195 181 211 195 174 205 188 181 211 195 174 205 188 174 205 188 174 205 188 181 211 195 174 205 188 174 205 188 174 205 188 174 205 188 174 205 188 174 205 188 174 205 188 174 205 188 174 205 188 174 205 188 174 205 188 174 205 188 174 205 188 174 205 188 174 205 188 174 205 188 155 168 165 174 205 188 174 205 188 174 205 188 174 205 188 
